<svg width="19" height="22" viewBox="0 0 19 22" fill="none" xmlns="http://www.w3.org/2000/svg">
<path d="M2.28846 3.82693L3.25 19.2115C3.29567 20.1005 3.94231 20.75 4.78846 20.75H13.6346C14.4841 20.75 15.1187 20.1005 15.1731 19.2115L16.1346 3.82693M0.75 3.82693H17.6731M6.13461 3.82693V1.90385C6.13417 1.7522 6.16371 1.60196 6.22154 1.46177C6.27937 1.32158 6.36434 1.1942 6.47158 1.08697C6.57881 0.979735 6.70619 0.89476 6.84638 0.836931C6.98657 0.779103 7.13681 0.749561 7.28846 0.750005H11.1346C11.2863 0.749561 11.4365 0.779103 11.5767 0.836931C11.7169 0.89476 11.8443 0.979735 11.9515 1.08697C12.0587 1.1942 12.1437 1.32158 12.2015 1.46177C12.2594 1.60196 12.2889 1.7522 12.2885 1.90385V3.82693M9.21154 6.90385V17.6731M5.75 6.90385L6.13461 17.6731M12.6731 6.90385L12.2885 17.6731" stroke="white" stroke-width="1.5" stroke-linecap="round" stroke-linejoin="round"/>
</svg>
