<svg width="20" height="20" viewBox="0 0 20 20" fill="none" xmlns="http://www.w3.org/2000/svg">
<path d="M1.21094 10.8984H8.47656V18.1641C8.47656 18.8319 9.01966 19.375 9.6875 19.375C10.3553 19.375 10.8984 18.8319 10.8984 18.1641V10.8984H18.1641C18.8319 10.8984 19.375 10.3553 19.375 9.6875C19.375 9.01966 18.8319 8.47656 18.1641 8.47656H10.8984V1.21094C10.8984 0.5431 10.3553 0 9.6875 0C9.01966 0 8.47656 0.5431 8.47656 1.21094V8.47656H1.21094C0.5431 8.47656 0 9.01966 0 9.6875C0 10.3553 0.5431 10.8984 1.21094 10.8984Z" fill="white"/>
</svg>
