<svg width="21" height="21" viewBox="0 0 21 21" fill="none" xmlns="http://www.w3.org/2000/svg">
<path d="M17 8.8V18C17 18.2626 16.9483 18.5227 16.8477 18.7654C16.7472 19.008 16.5999 19.2285 16.4142 19.4142C16.2285 19.5999 16.008 19.7472 15.7654 19.8477C15.5227 19.9483 15.2626 20 15 20H3C2.46957 20 1.96086 19.7893 1.58579 19.4142C1.21071 19.0391 1 18.5304 1 18V6C1 5.46957 1.21071 4.96086 1.58579 4.58579C1.96086 4.21071 2.46957 4 3 4H11.374" stroke="white" stroke-width="2" stroke-linecap="round" stroke-linejoin="round"/>
<path d="M20.797 0.262514C20.7239 0.182235 20.6354 0.117602 20.5366 0.0725223C20.4379 0.0274421 20.331 0.00285057 20.2225 0.000233443C20.114 -0.00238369 20.0061 0.017028 19.9052 0.0572955C19.8044 0.0975631 19.7129 0.15785 19.636 0.234514L19.0175 0.850014C18.9425 0.925021 18.9004 1.02672 18.9004 1.13276C18.9004 1.2388 18.9425 1.34051 19.0175 1.41551L19.5845 1.98151C19.6217 2.01885 19.6658 2.04848 19.7145 2.0687C19.7632 2.08892 19.8153 2.09933 19.868 2.09933C19.9207 2.09933 19.9729 2.08892 20.0215 2.0687C20.0702 2.04848 20.1143 2.01885 20.1515 1.98151L20.7545 1.38151C21.0595 1.07701 21.088 0.581014 20.797 0.262514ZM17.767 2.10001L8.74101 11.11C8.68629 11.1645 8.64651 11.2322 8.62551 11.3065L8.20801 12.55C8.19801 12.5837 8.1973 12.6196 8.20596 12.6537C8.21462 12.6878 8.23233 12.7189 8.25721 12.7438C8.2821 12.7687 8.31324 12.7864 8.34735 12.7951C8.38146 12.8037 8.41727 12.803 8.45101 12.793L9.69351 12.3755C9.76784 12.3545 9.83551 12.3147 9.89001 12.26L18.9 3.23301C18.9834 3.14876 19.0301 3.03503 19.0301 2.91651C19.0301 2.798 18.9834 2.68426 18.9 2.60001L18.4025 2.10001C18.3181 2.0159 18.2039 1.96866 18.0848 1.96866C17.9656 1.96866 17.8514 2.0159 17.767 2.10001Z" fill="white"/>
</svg>
